<?xml version="1.0" encoding="UTF-8"?>
<svg width="348px" height="359px" viewBox="0 0 348 359" version="1.1" xmlns="http://www.w3.org/2000/svg" xmlns:xlink="http://www.w3.org/1999/xlink">
    <!-- Generator: Sketch 54.1 (76490) - https://sketchapp.com -->
    <title>logo</title>
    <desc>Created with Sketch.</desc>
    <g id="V6" stroke="none" stroke-width="1" fill="none" fill-rule="evenodd">
        <g id="App-Icon-Copy" transform="translate(-82.000000, -76.000000)" fill-rule="nonzero">
            <g id="logo" transform="translate(80.000000, 76.000000)">
                <polygon id="T" fill="#FFFFFF" points="2.17117958 137.85229 2.17117958 150.473902 26.3039096 150.473902 26.3039096 223.456283 39.7875937 223.456283 39.7875937 150.473902 63.9203237 150.473902 63.9203237 137.85229"></polygon>
                <polygon id="H" fill="#FFFFFF" points="197.747023 36.3105972 160.158984 36.3105972 160.158984 0.487743679 146.5845 0.487743679 146.5845 86.0917363 160.158984 86.0917363 160.158984 48.9322091 197.747023 48.9322091 197.747023 86.0917363 211.321506 86.0917363 211.321506 0.487743679 197.747023 0.487743679"></polygon>
                <polygon id="E" fill="#FFFFFF" points="312.36556 210.834671 312.36556 186.296755 345.752653 186.296755 345.752653 173.942478 312.36556 173.942478 312.36556 150.473902 349.091362 150.473902 349.091362 137.85229 298.965453 137.85229 298.965453 223.456283 349.759104 223.456283 349.759104 210.834671"></polygon>
                <polygon id="N" fill="#FFFFFF" points="197.848966 332.496328 155.630732 273.226046 145.588547 273.226046 145.588547 358.830038 159.061087 358.830038 159.061087 299.559756 201.279321 358.830038 211.321506 358.830038 211.321506 273.226046 197.848966 273.226046"></polygon>
                <g id="Group" transform="translate(47.985061, 50.257507)" stroke="#FFFFFF" stroke-linecap="square" stroke-width="12.9437229">
                    <path d="M0.201919812,0.31706166 L263.204171,263.171784" id="Line-2-Copy" transform="translate(131.963897, 131.889872) scale(-1, 1) translate(-131.963897, -131.889872) "></path>
                    <path d="M0.201919812,0.31706166 L263.204171,263.171784" id="Line-2-Copy-2"></path>
                </g>
            </g>
        </g>
    </g>
</svg>